<?xml version="1.0" standalone="no"?>
<!DOCTYPE svg PUBLIC "-//W3C//DTD SVG 1.1//EN" "http://www.w3.org/Graphics/SVG/1.1/DTD/svg11.dtd">
<svg width="100%" height="100%" viewBox="0 0 560 556" version="1.1" xmlns="http://www.w3.org/2000/svg" xmlns:xlink="http://www.w3.org/1999/xlink" xml:space="preserve" style="fill-rule:evenodd;clip-rule:evenodd;stroke-linejoin:round;stroke-miterlimit:1.41421;">
    <g transform="matrix(1,0,0,1,-175,-5)">
        <circle cx="454" cy="282" r="275" style="fill:rgb(209,93,57);"/>
    </g>
    <g transform="matrix(1,0,0,1,-175,-5)">
        <ellipse cx="287" cy="126.5" rx="10" ry="10.5" style="fill:rgb(176,68,51);"/>
    </g>
    <g transform="matrix(1,0,0,1,-175,-5)">
        <circle cx="338" cy="175" r="10" style="fill:rgb(176,68,51);"/>
    </g>
    <g transform="matrix(1,0,0,1,-175,-5)">
        <circle cx="449" cy="195" r="30" style="fill:rgb(176,68,51);"/>
    </g>
    <g transform="matrix(1,0,0,1,-175,-5)">
        <circle cx="348" cy="427" r="27" style="fill:rgb(176,68,51);"/>
    </g>
    <g transform="matrix(1,0,0,1,-175,-5)">
        <circle cx="617" cy="335" r="47" style="fill:rgb(176,68,51);"/>
    </g>
    <g transform="matrix(1,0,0,1,-175,-5)">
        <circle cx="464" cy="56" r="6" style="fill:rgb(176,68,51);"/>
    </g>
    <g transform="matrix(1,0,0,1,-175,-5)">
        <circle cx="413.5" cy="52.5" r="4.5" style="fill:rgb(176,68,51);"/>
    </g>
    <g transform="matrix(1,0,0,1,-175,-5)">
        <circle cx="379.5" cy="116.5" r="4.5" style="fill:rgb(176,68,51);"/>
    </g>
    <g transform="matrix(1,0,0,1,-175,-5)">
        <circle cx="619.5" cy="127.5" r="20.5" style="fill:rgb(176,68,51);"/>
    </g>
    <g transform="matrix(1,0,0,1,-175,-5)">
        <circle cx="296" cy="273" r="25" style="fill:rgb(176,68,51);"/>
    </g>
    <g transform="matrix(1,0,0,1,-175,-5)">
        <ellipse cx="413" cy="347" rx="21" ry="20" style="fill:rgb(176,68,51);"/>
    </g>
    <g transform="matrix(1,0,0,1,-175,-5)">
        <circle cx="439.5" cy="284.5" r="8.5" style="fill:rgb(176,68,51);"/>
    </g>
    <g transform="matrix(1,0,0,1,-175,-5)">
        <circle cx="441.5" cy="508.5" r="12.5" style="fill:rgb(176,68,51);"/>
    </g>
    <g transform="matrix(1,0,0,1,-175,-5)">
        <circle cx="559" cy="444" r="23" style="fill:rgb(176,68,51);"/>
    </g>
    <g transform="matrix(1,0,0,1,-175,-5)">
        <circle cx="433.5" cy="427.5" r="4.5" style="fill:rgb(176,68,51);"/>
    </g>
    <g transform="matrix(1,0,0,1,-175,-5)">
        <circle cx="265" cy="350" r="19" style="fill:rgb(176,68,51);"/>
    </g>
    <g transform="matrix(1,0,0,1,-175,-5)">
        <circle cx="587" cy="233" r="12" style="fill:rgb(176,68,51);"/>
    </g>
</svg>
