<?xml version="1.0" standalone="no"?>
<!DOCTYPE svg PUBLIC "-//W3C//DTD SVG 1.1//EN" "http://www.w3.org/Graphics/SVG/1.1/DTD/svg11.dtd">
<svg width="100%" height="100%" viewBox="0 0 551 550" version="1.1" xmlns="http://www.w3.org/2000/svg" xmlns:xlink="http://www.w3.org/1999/xlink" xml:space="preserve" style="fill-rule:evenodd;clip-rule:evenodd;stroke-linejoin:round;stroke-miterlimit:1.41421;">
    <g transform="matrix(1,0,0,1,-123,-47)">
        <circle cx="398" cy="322" r="275" style="fill:rgb(31,0,196);"/>
    </g>
    <g transform="matrix(1,0,0,1,-129,-32)">
        <path d="M154,193C321.36,201.974 491.478,193.181 660,209L670,240C495.246,254.106 316.567,252.222 133,261C136.05,237.491 142.138,214.63 154,193Z" style="fill:rgb(70,71,255);"/>
    </g>
    <g transform="matrix(1,0,0,1,-129,-32)">
        <path d="M677,277C550.373,281.896 421.691,290.645 295,300C420.615,312.508 549.568,322.82 678,317C679.23,303.874 680.209,290.612 677,277Z" style="fill:rgb(70,71,255);"/>
    </g>
    <g transform="matrix(1,0,0,1,-129,-32)">
        <path d="M249,80C353.952,96.876 464.95,105.567 570,88L541,69C453.654,73.874 363.32,68.964 276,64C265.404,69.336 256.489,74.669 249,80Z" style="fill:rgb(70,71,255);"/>
    </g>
    <g transform="matrix(1,0,0,1,-129,-32)">
        <path d="M143,392C255.641,402.993 369.28,398.143 483,392C373.231,405.216 263.628,419.519 151,414C147.337,408.245 144.642,400.955 143,392Z" style="fill:rgb(70,71,255);"/>
    </g>
    <g transform="matrix(1,0,0,1,-129,-32)">
        <path d="M205,359C272.706,345.982 340.369,347.127 408,359C340.407,364.903 272.75,365.655 205,359Z" style="fill:rgb(165,166,255);"/>
    </g>
    <g transform="matrix(1,0,0,1,-129,-32)">
        <path d="M179,149C255.351,157.432 331.677,153.842 408,149C337.874,142.534 258.641,146.5 190,134C180.679,144.038 183.85,141.834 179,149Z" style="fill:rgb(165,166,255);"/>
    </g>
    <g transform="matrix(1,0,0,1,-129,-32)">
        <path d="M425,443C503.546,434.81 582.099,426.652 659,410C656.881,416.592 653.267,424.097 649,432C574.264,441.209 499.635,441.856 425,443Z" style="fill:rgb(165,166,255);"/>
    </g>
    <g transform="matrix(1,0,0,1,-129,-32)">
        <path d="M620,476C498.598,490.174 376.288,491.588 255,490C368.98,501.44 482.13,511.041 598,502C606.573,493.143 614.985,484.468 620,476Z" style="fill:rgb(70,71,255);"/>
    </g>
</svg>
