<?xml version="1.0" standalone="no"?>
<!DOCTYPE svg PUBLIC "-//W3C//DTD SVG 1.1//EN" "http://www.w3.org/Graphics/SVG/1.1/DTD/svg11.dtd">
<svg width="100%" height="100%" viewBox="0 0 800 600" version="1.1" xmlns="http://www.w3.org/2000/svg" xmlns:xlink="http://www.w3.org/1999/xlink" xml:space="preserve" style="fill-rule:evenodd;clip-rule:evenodd;stroke-linejoin:round;stroke-miterlimit:1.41421;">
    <circle cx="392.5" cy="306.5" r="278.5" style="fill:rgb(141,141,141);"/>
    <circle cx="205.5" cy="242.5" r="8.5" style="fill:rgb(114,114,114);"/>
    <circle cx="362" cy="273" r="25" style="fill:rgb(114,114,114);"/>
    <circle cx="381" cy="59" r="14" style="fill:rgb(114,114,114);"/>
    <circle cx="554.5" cy="130.5" r="11.5" style="fill:rgb(114,114,114);"/>
    <circle cx="430.5" cy="176.5" r="18.5" style="fill:rgb(114,114,114);"/>
    <circle cx="207.5" cy="161.5" r="11.5" style="fill:rgb(114,114,114);"/>
    <circle cx="272.5" cy="106.5" r="7.5" style="fill:rgb(114,114,114);"/>
    <circle cx="319" cy="460" r="15" style="fill:rgb(114,114,114);"/>
    <circle cx="362" cy="376" r="5" style="fill:rgb(114,114,114);"/>
    <circle cx="197" cy="444" r="17" style="fill:rgb(114,114,114);"/>
    <circle cx="599" cy="415" r="10" style="fill:rgb(114,114,114);"/>
    <circle cx="158" cy="314" r="9" style="fill:rgb(88,88,88);"/>
    <circle cx="457" cy="272" r="16" style="fill:rgb(88,88,88);"/>
    <circle cx="626" cy="348" r="6" style="fill:rgb(88,88,88);"/>
    <circle cx="533.5" cy="370.5" r="11.5" style="fill:rgb(88,88,88);"/>
    <circle cx="440" cy="113" r="7" style="fill:rgb(88,88,88);"/>
    <circle cx="335.5" cy="132.5" r="15.5" style="fill:rgb(88,88,88);"/>
    <g transform="matrix(1,0,0,1,-27,0)">
        <circle cx="550" cy="183" r="14" style="fill:rgb(88,88,88);"/>
    </g>
    <circle cx="611" cy="185" r="9" style="fill:rgb(88,88,88);"/>
    <circle cx="249" cy="487" r="15" style="fill:rgb(88,88,88);"/>
    <circle cx="288.5" cy="404.5" r="4.5" style="fill:rgb(88,88,88);"/>
    <g transform="matrix(1,0,0,1,-1,14)">
        <circle cx="519.5" cy="450.5" r="16.5" style="fill:rgb(88,88,88);"/>
    </g>
    <circle cx="394.5" cy="446.5" r="7.5" style="fill:rgb(88,88,88);"/>
    <circle cx="271.5" cy="231.5" r="5.5" style="fill:rgb(88,88,88);"/>
    <g transform="matrix(1,0,0,1,-10,13)">
        <circle cx="171.5" cy="184.5" r="11.5" style="fill:rgb(88,88,88);"/>
    </g>
    <circle cx="322" cy="182" r="21" style="fill:rgb(114,114,114);"/>
    <circle cx="250.5" cy="342.5" r="33.5" style="fill:rgb(114,114,114);"/>
    <circle cx="562" cy="265" r="49" style="fill:rgb(114,114,114);"/>
    <circle cx="412.5" cy="523.5" r="22.5" style="fill:rgb(114,114,114);"/>
    <circle cx="458" cy="393" r="32" style="fill:rgb(114,114,114);"/>
</svg>
