<?xml version="1.0" standalone="no"?>
<!DOCTYPE svg PUBLIC "-//W3C//DTD SVG 1.1//EN" "http://www.w3.org/Graphics/SVG/1.1/DTD/svg11.dtd">
<svg width="100%" height="100%" viewBox="0 0 750 233" version="1.1" xmlns="http://www.w3.org/2000/svg" xmlns:xlink="http://www.w3.org/1999/xlink" xml:space="preserve" style="fill-rule:evenodd;clip-rule:evenodd;stroke-linejoin:round;stroke-miterlimit:1.41421;">
    <g transform="matrix(1,0,0,1,-39.5993,-189.987)">
        <path d="M604,192C657.24,204.411 706.254,217.831 736.033,234.84C830.283,288.674 801.958,360.419 619,401C479.399,431.847 339.72,426.018 200,401C156.817,393.268 126.391,379.368 101,366C19.563,323.123 18.703,273.845 101,230C120.148,219.799 150.287,210.047 172,203C191.503,196.67 224.93,189.638 225,190C212.566,212.211 205.083,231.667 200,250C187.919,256.548 184.155,262.743 177,269C164.399,280.018 160.335,290.693 161,300C161.752,310.526 168.12,319.392 177,327C184.475,333.404 198.094,341.016 204,345C233.73,365.056 327.268,384.95 419,383C471.574,381.882 523.638,375.941 564.853,365.678C598.936,357.191 625.6,345.116 639,336C659.678,321.933 671.864,294.455 630,261C625.191,236.737 616.514,213.799 604,192Z" style="fill:rgb(185,141,37);"/>
    </g>
</svg>
