<?xml version="1.0" standalone="no"?>
<!DOCTYPE svg PUBLIC "-//W3C//DTD SVG 1.1//EN" "http://www.w3.org/Graphics/SVG/1.1/DTD/svg11.dtd">
<svg width="100%" height="100%" viewBox="0 0 442 442" version="1.1" xmlns="http://www.w3.org/2000/svg" xmlns:xlink="http://www.w3.org/1999/xlink" xml:space="preserve" style="fill-rule:evenodd;clip-rule:evenodd;stroke-linejoin:round;stroke-miterlimit:1.41421;">
    <g transform="matrix(0.824627,0,0,0.824627,-141.836,-15.6679)">
        <circle cx="440" cy="287" r="268" style="fill:rgb(215,188,128);"/>
    </g>
    <g transform="matrix(1,0,0,1,-153.401,0)">
        <path d="M157,260C301.985,278.821 445.404,285.069 589,273C587.329,280.165 584.941,287.512 582,295C442.184,313.84 304.311,308.905 166,293C162.561,283.165 159.597,272.069 157,260Z" style="fill:rgb(173,153,116);"/>
    </g>
    <g transform="matrix(1,0,0,1,-153.401,0)">
        <path d="M174,312C306.676,325.271 439.343,328.674 572,319L562,338C437.033,347.181 312.03,346.406 187,338C182.028,330.323 177.625,321.764 174,312Z" style="fill:rgb(173,153,116);"/>
    </g>
    <g transform="matrix(1,0,0,1,-153.401,0)">
        <path d="M200,356C315.013,363.258 434.015,364.095 549,356L541,365C431.306,372.331 316.642,371.591 207,365L200,356Z" style="fill:rgb(173,153,116);"/>
    </g>
    <g transform="matrix(1,0,0,1,-153.401,0)">
        <path d="M233,391C325.819,398.162 418.159,399.583 510,395C431.211,456.306 318.033,460.105 233,391Z" style="fill:rgb(173,153,116);"/>
    </g>
    <g transform="matrix(1,0,0,1,-153.401,0)">
        <path d="M155,242C302.047,251.905 447.817,256.964 592,256L594,242C448.344,242.237 300.979,237.03 154,226L155,242Z" style="fill:rgb(173,153,116);"/>
    </g>
    <g transform="matrix(1,0,0,1,-153.401,0)">
        <path d="M297,14C349.69,10.647 400.353,11.232 453,14L482,28C411.038,22.093 339.036,22.4 268,28C276.827,22.95 286.389,18.235 297,14Z" style="fill:rgb(173,153,116);"/>
    </g>
    <g transform="matrix(1,0,0,1,-153.401,0)">
        <path d="M249,39C333.382,35.034 414.719,34.719 499,39C504.015,42.233 509.019,46.028 514,51C421.665,43.797 326.332,44.16 234,51L249,39Z" style="fill:rgb(173,153,116);"/>
    </g>
    <g transform="matrix(1,0,0,1,-153.401,0)">
        <path d="M219,64C323.499,55.82 427.775,56.221 530,64C541.52,76.321 551.553,88.981 560,102C436.614,98.521 312.61,98.541 188,102C197.753,88.436 207.297,75.65 219,64Z" style="fill:rgb(173,153,116);"/>
    </g>
    <g transform="matrix(1,0,0,1,-153.401,0)">
        <path d="M171,135C308.117,127.174 444.454,127.121 578,135L584,152C444.675,146.013 305.65,146.231 165,152L171,135Z" style="fill:rgb(173,153,116);"/>
    </g>
    <g transform="matrix(1,0,0,1,-153.401,0)">
        <path d="M155,192C300.263,188.824 447.58,188.064 593,192C594.035,201.032 594.748,210.328 595,220C447.962,218.003 299.733,214.472 154,210L155,192Z" style="fill:rgb(173,153,116);"/>
    </g>
</svg>
