<?xml version="1.0" standalone="no"?>
<!DOCTYPE svg PUBLIC "-//W3C//DTD SVG 1.1//EN" "http://www.w3.org/Graphics/SVG/1.1/DTD/svg11.dtd">
<svg width="100%" height="100%" viewBox="0 0 578 577" version="1.1" xmlns="http://www.w3.org/2000/svg" xmlns:xlink="http://www.w3.org/1999/xlink" xml:space="preserve" style="fill-rule:evenodd;clip-rule:evenodd;stroke-linejoin:round;stroke-miterlimit:1.41421;">
    <g transform="matrix(1,0,0,1,-144,-51)">
        <circle cx="433.5" cy="339.5" r="288.5" style="fill:rgb(149,212,239);"/>
    </g>
    <g transform="matrix(1,0,0,1,-142,-15)">
        <path d="M165,193C362.488,177.431 540.275,177.062 699,193L708,217C519.947,201.875 336.828,202.743 156,217L165,193Z" style="fill:rgb(185,237,246);"/>
    </g>
    <g transform="matrix(1,0,0,1,-142,-15)">
        <path d="M144,280C335.655,302.056 527.334,301.637 719,293C718.809,306.936 718.82,319.935 717,334C478.309,325.482 276.735,323.854 143,311C142.679,299.494 143.141,289.392 144,280Z" style="fill:rgb(185,237,246);"/>
    </g>
    <g transform="matrix(1,0,0,1,-142,-15)">
        <path d="M714,362C555.682,365.809 399.676,364.093 240,357C387.813,370.06 544.956,376.543 710,376L714,362Z" style="fill:rgb(220,254,252);"/>
    </g>
    <g transform="matrix(1,0,0,1,-142,-15)">
        <path d="M187,457C349.278,469.828 511.611,471.828 674,463L662,476C509.755,492.023 355.47,492.727 201,476L187,457Z" style="fill:rgb(220,254,252);"/>
    </g>
    <g transform="matrix(1,0,0,1,-203,-18)">
        <path d="M271,261C401.881,265.824 533.516,265.269 666,261C532.963,246.48 401.335,246.851 271,261Z" style="fill:rgb(220,254,252);"/>
    </g>
    <g transform="matrix(1,0,0,1,-142,-15)">
        <path d="M176,169C331.129,156.448 489.17,148.609 647,150C493.697,136.569 345.853,146.765 187,150C183.471,156.238 179.12,162.563 176,169Z" style="fill:rgb(220,254,252);"/>
    </g>
    <g transform="matrix(1,0,0,1,-142,-15)">
        <path d="M275,61C373.383,49.714 473.711,45.306 572,51L552,41C468.356,31.649 386.34,34.409 304,44L275,61Z" style="fill:rgb(220,254,252);"/>
    </g>
    <g transform="matrix(1,0,0,1,-142,-15)">
        <path d="M156,391C338.061,404.158 524.062,404.28 706,391L700,408C546.792,436.376 349.415,430.309 162,407L156,391Z" style="fill:rgb(185,237,246);"/>
    </g>
    <g transform="matrix(1,0,0,1,-142,-15)">
        <path d="M226,100C349.675,76.939 479.647,71.579 617,83L635,100C495.26,92.854 353.779,97.707 215,115L226,100Z" style="fill:rgb(185,237,246);"/>
    </g>
    <g transform="matrix(1,0,0,1,-142,-15)">
        <path d="M636,507C500.287,530.483 361.625,527.803 226,507L250,527C367.345,548.594 492.662,554.297 613,527L636,507Z" style="fill:rgb(185,237,246);"/>
    </g>
</svg>
