<?xml version="1.0" standalone="no"?>
<!DOCTYPE svg PUBLIC "-//W3C//DTD SVG 1.1//EN" "http://www.w3.org/Graphics/SVG/1.1/DTD/svg11.dtd">
<svg width="100%" height="100%" viewBox="0 0 1276 986" version="1.1" xmlns="http://www.w3.org/2000/svg" xmlns:xlink="http://www.w3.org/1999/xlink" xml:space="preserve" style="fill-rule:evenodd;clip-rule:evenodd;stroke-linejoin:round;stroke-miterlimit:1.41421;">
    <g transform="matrix(1,0,0,1,-2,-9)">
        <path d="M684,181C657.998,143.826 611.413,150.693 596,181C570.741,179.651 530.124,187.537 487.279,201.291C415.196,224.43 336.427,260.676 313,260C266.445,266.221 207.959,252.951 189,236C180.054,228.002 177.094,205.248 189,200C208.807,188.251 227.917,198.58 225,213C222.955,223.109 194.332,225.837 201,202C174.417,212.274 196.019,240.143 219,236C251.638,230.116 250.892,179.913 207,172C161.817,163.855 128.517,197.63 141,236C153.372,274.031 214.547,298.037 288.586,300.107C319.362,300.968 352.36,292.307 385,280C485.366,242.156 557.619,221.951 596,223C622.525,262.329 662.173,255.955 684,223C722.381,221.951 794.634,242.156 895,280C927.64,292.307 960.638,300.968 991.414,300.107C1065.45,298.037 1126.63,274.031 1139,236C1151.48,197.63 1116.02,163.115 1073,172C1016.13,183.748 1039.4,233.267 1061,236C1083.65,238.866 1105.64,211.173 1079,202C1085.67,225.837 1057.16,225.11 1055,213C1052.25,197.567 1071.19,188.251 1091,200C1102.91,205.248 1101.31,227.734 1091,236C1072,251.239 1014.28,266.243 967,260C943.573,260.676 864.804,224.43 792.721,201.291C749.876,187.537 708.362,179.392 684,181" style="fill:black;"/>
    </g>
</svg>
