<?xml version="1.0" standalone="no"?>
<!DOCTYPE svg PUBLIC "-//W3C//DTD SVG 1.1//EN" "http://www.w3.org/Graphics/SVG/1.1/DTD/svg11.dtd">
<svg id="Jupiter_svg" width="100%" height="100%" viewBox="0 0 582 581" version="1.1" xmlns="http://www.w3.org/2000/svg" xmlns:xlink="http://www.w3.org/1999/xlink" xml:space="preserve" style="fill-rule:evenodd;clip-rule:evenodd;stroke-linejoin:round;stroke-miterlimit:1.41421;">
    <g transform="matrix(1,0,0,1,-126,-3)">
        <circle id="circle_jupiter" cx="416.5" cy="293.5" r="290.5" style="fill:rgb(217,132,41);"/>
    </g>
    <g transform="matrix(1,0,0,1,-116,-11)">
        <path d="M122,240C312.193,277.637 505.543,296.182 697,289C697.105,300.673 697.21,312.345 696,324C498.456,318.14 305.372,308.891 119,258L122,240Z" style="fill:rgb(230,181,135);"/>
    </g>
    <g transform="matrix(1,0,0,1,-116,-11)">
        <path d="M588,528C459.778,538.117 332.18,530.363 209,514C220.754,524.724 232.677,534.492 245,542C338.838,559.449 447.498,564.88 541,559C560.326,547.778 578.19,537.11 588,528Z" style="fill:rgb(230,181,135);"/>
    </g>
    <g transform="matrix(1,0,0,1,-116,-11)">
        <path d="M143,178C304.845,213.501 563.989,224.253 677,196C685.837,217.793 690.48,244.511 695,276C483.002,287.869 287.329,261.095 126,226L143,178Z" style="fill:rgb(213,83,38);"/>
    </g>
    <g transform="matrix(1,0,0,1,-116,-11)">
        <path d="M134,401C213.583,433.616 297.136,463.206 385,477C313.346,481.924 241.685,477.94 170,471C154.062,447.151 143.304,423.98 134,401Z" style="fill:rgb(213,83,38);"/>
    </g>
    <g transform="matrix(1,0,0,1,-116,-11)">
        <path d="M685,219C569.732,233.041 458.619,232.71 349,231C459.954,245.145 573.673,255.905 693,254C691.392,242.932 689.289,231.584 685,219Z" style="fill:rgb(230,181,135);"/>
    </g>
    <g transform="matrix(1,0,0,1,-116,-11)">
        <path d="M647,141C530.967,151.902 233.089,120.271 265,112C375.951,93.651 486.106,81.726 595,80C613.222,97.478 631.008,116.361 647,141Z" style="fill:rgb(213,83,38);"/>
    </g>
    <g transform="matrix(1,0,0,1,-116,-29)">
        <path d="M693,367C501.256,373.427 305.962,352.343 117,306C116.157,320.97 116.333,335.966 118,351C300.4,391.667 499.004,401.825 682,410C686.977,395.726 691.266,381.391 693,367Z" style="fill:rgb(213,83,38);"/>
    </g>
    <g transform="matrix(1,0,0,1,-116,-11)">
        <path d="M116,304C291.591,337.346 488.255,362.85 664,369C487.42,373.435 291.737,356.77 117,322L116,304Z" style="fill:rgb(230,181,135);"/>
    </g>
    <g transform="matrix(1,0,0,1,-116,-11)">
        <path d="M164,141C330.072,159.157 496.07,166.864 662,165L671,181C499.974,190.619 326.97,184.283 156,155L164,141Z" style="fill:rgb(230,181,135);"/>
    </g>
    <g transform="matrix(1,0,0,1,-116,-11)">
        <path d="M262,49C346.944,38.117 430.845,39.256 514,49C402.632,49.974 307.678,57.197 230,71L262,49Z" style="fill:rgb(230,181,135);"/>
    </g>
    <g transform="matrix(1,0,0,1,-116,-11)">
        <path d="M126,378C196.892,419.839 267.64,448.968 340,469C274.101,459.944 207.143,446.437 141,419C134.737,405.064 130.01,391.456 126,378Z" style="fill:rgb(230,181,135);"/>
    </g>
    <g transform="matrix(1,0,0,1,-116,-11)">
        <path d="M202,376C254.665,393.994 347.363,407.583 404,406C392.79,419.024 385.754,422.38 388,439C321.601,422.776 260.15,405.556 202,376Z" style="fill:rgb(213,83,38);"/>
    </g>
    <g transform="matrix(1,0,0,1,-116,-11)">
        <path d="M563,546C484.84,567.913 386.01,560.778 312,552C352.802,572.279 444.862,577.701 499,576C525.187,568.562 537.232,562.161 563,546Z" style="fill:rgb(213,83,38);"/>
    </g>
    <g transform="matrix(1,0,0,1,-116,-38)">
        <path d="M570,412C590.886,461.732 547.53,510.351 514,520C475.466,531.089 406.623,498.181 415,461C424.297,434.672 442.437,422.931 465,419C482.434,416.821 501.617,421.929 508,430C517.376,441.856 508.816,469.661 491,475C477.571,479.024 457.814,470.766 456,461C467.447,467.335 479.029,469.757 491,461C501.157,452.99 498.211,440.465 491,437C478.46,430.975 437.994,433.985 435,461C434.831,491.359 489.17,502.056 508,498C534.444,492.303 553.534,446.343 540,430C531.744,420.03 523.885,412.412 508,408L570,412Z" style="fill:rgb(213,83,38);"/>
    </g>
    <g transform="matrix(1,0,0,1,-116,-11)">
        <path d="M662,438C649.882,444.604 598,433 598,433C597.371,436.263 597.999,456.583 576,473C603.279,479.855 629.323,479.93 636,478C644.868,467.013 656.033,449.824 662,438Z" style="fill:rgb(213,83,38);"/>
    </g>
    <g transform="matrix(0.617167,0,0,0.560502,69.3073,165.315)">
        <path d="M514,368.749C595.01,403.659 578.222,494.985 514,515.047C470.723,528.566 415.125,493.602 417.541,463.035C418.903,445.801 440.965,421.778 465,419C482.434,416.821 497.788,448.754 480.733,456.171C464.471,463.244 450.852,457.026 448.973,450.819C444.401,435.711 428.817,451.797 432.124,464.819C439.759,494.891 483.278,502.194 506.658,497.206C531.821,491.837 566.929,429.612 521.24,388.375C505.725,374.371 477.126,368.16 438.605,361.613C490.238,368.016 501.467,366.616 514,368.749Z" style="fill:rgb(230,181,135);"/>
    </g>
</svg>
