<?xml version="1.0" standalone="no"?>
<!DOCTYPE svg PUBLIC "-//W3C//DTD SVG 1.1//EN" "http://www.w3.org/Graphics/SVG/1.1/DTD/svg11.dtd">
<svg width="100%" height="100%" viewBox="0 0 574 573" version="1.1" xmlns="http://www.w3.org/2000/svg" xmlns:xlink="http://www.w3.org/1999/xlink" xml:space="preserve" style="fill-rule:evenodd;clip-rule:evenodd;stroke-linejoin:round;stroke-miterlimit:1.41421;">
    <g transform="matrix(1.01239,0,0,1.01239,-198.441,-51.6319)">
        <circle cx="479.5" cy="333.5" r="282.5" style="fill:rgb(75,71,69);"/>
    </g>
    <g transform="matrix(1,0,0,1,-123,-14)">
        <circle cx="203" cy="309" r="12" style="fill:rgb(132,132,132);"/>
    </g>
    <g transform="matrix(1,0,0,1,-123,-14)">
        <circle cx="432" cy="317" r="8" style="fill:rgb(132,132,132);"/>
    </g>
    <g transform="matrix(1,0,0,1,-123,-14)">
        <circle cx="448.5" cy="46.5" r="8.5" style="fill:rgb(132,132,132);"/>
    </g>
    <g transform="matrix(1,0,0,1,-123,-14)">
        <circle cx="258" cy="93" r="6" style="fill:rgb(132,132,132);"/>
    </g>
    <g transform="matrix(1,0,0,1,-123,-14)">
        <circle cx="582.5" cy="436.5" r="11.5" style="fill:rgb(132,132,132);"/>
    </g>
    <g transform="matrix(1,0,0,1,-123,-14)">
        <circle cx="392.5" cy="169.5" r="11.5" style="fill:rgb(132,132,132);"/>
    </g>
    <g transform="matrix(1,0,0,1,-123,-14)">
        <circle cx="278" cy="497" r="17" style="fill:rgb(132,132,132);"/>
    </g>
    <g transform="matrix(1,0,0,1,-123,-14)">
        <circle cx="291.5" cy="157.5" r="13.5" style="fill:rgb(100,100,100);"/>
    </g>
    <g transform="matrix(1,0,0,1,-123,-14)">
        <circle cx="307" cy="305" r="42" style="fill:rgb(100,100,100);"/>
    </g>
    <g transform="matrix(1,0,0,1,-123,-14)">
        <circle cx="493.5" cy="150.5" r="16.5" style="fill:rgb(100,100,100);"/>
    </g>
    <g transform="matrix(1,0,0,1,-123,-14)">
        <circle cx="376.5" cy="88.5" r="11.5" style="fill:rgb(100,100,100);"/>
    </g>
    <g transform="matrix(1,0,0,1,-123,-14)">
        <circle cx="552.5" cy="274.5" r="17.5" style="fill:rgb(100,100,100);"/>
    </g>
    <g transform="matrix(1,0,0,1,-123,-14)">
        <circle cx="429.5" cy="236.5" r="6.5" style="fill:rgb(100,100,100);"/>
    </g>
    <g transform="matrix(1,0,0,1,-123,-14)">
        <circle cx="625.5" cy="167.5" r="13.5" style="fill:rgb(100,100,100);"/>
    </g>
    <g transform="matrix(1,0,0,1,-123,-14)">
        <circle cx="382" cy="526" r="16" style="fill:rgb(100,100,100);"/>
    </g>
    <g transform="matrix(1,0,0,1,-123,-14)">
        <circle cx="452" cy="408" r="19" style="fill:rgb(100,100,100);"/>
    </g>
    <g transform="matrix(1,0,0,1,-123,-14)">
        <circle cx="620.5" cy="379.5" r="4.5" style="fill:rgb(100,100,100);"/>
    </g>
    <g transform="matrix(1,0,0,1,-123,-14)">
        <circle cx="626" cy="255" r="9" style="fill:rgb(100,100,100);"/>
    </g>
    <g transform="matrix(1,0,0,1,-123,-14)">
        <circle cx="193.5" cy="226.5" r="8.5" style="fill:rgb(100,100,100);"/>
    </g>
    <g transform="matrix(1,0,0,1,-123,-14)">
        <circle cx="346.5" cy="411.5" r="9.5" style="fill:rgb(100,100,100);"/>
    </g>
    <g transform="matrix(1,0,0,1,-123,-14)">
        <circle cx="540.5" cy="233.5" r="3.5" style="fill:rgb(100,100,100);"/>
    </g>
    <g transform="matrix(1,0,0,1,-123,-14)">
        <circle cx="531" cy="79" r="12" style="fill:rgb(100,100,100);"/>
    </g>
    <g transform="matrix(1,0,0,1,-123,-14)">
        <circle cx="532" cy="485" r="12" style="fill:rgb(100,100,100);"/>
    </g>
    <g transform="matrix(1,0,0,1,-123,-14)">
        <circle cx="554" cy="343" r="7" style="fill:rgb(100,100,100);"/>
    </g>
    <g transform="matrix(1,0,0,1,-123,-14)">
        <circle cx="251" cy="417" r="9" style="fill:rgb(100,100,100);"/>
    </g>
</svg>
