<?xml version="1.0" standalone="no"?>
<!DOCTYPE svg PUBLIC "-//W3C//DTD SVG 1.1//EN" "http://www.w3.org/Graphics/SVG/1.1/DTD/svg11.dtd">
<svg width="100%" height="100%" viewBox="0 0 521 521" version="1.1" xmlns="http://www.w3.org/2000/svg" xmlns:xlink="http://www.w3.org/1999/xlink" xml:space="preserve" style="fill-rule:evenodd;clip-rule:evenodd;stroke-linejoin:round;stroke-miterlimit:1.41421;">
    <g transform="matrix(1,0,0,1,-172,-45)">
        <circle cx="432.5" cy="305.5" r="260.5" style="fill:rgb(115,115,115);"/>
    </g>
    <g transform="matrix(1,0,0,1,-172,-45)">
        <circle cx="257.5" cy="249.5" r="10.5" style="fill:rgb(132,132,132);"/>
    </g>
    <g transform="matrix(1,0,0,1,-172,-45)">
        <circle cx="483" cy="256" r="28" style="fill:rgb(132,132,132);"/>
    </g>
    <g transform="matrix(1,0,0,1,-172,-45)">
        <circle cx="351.5" cy="172.5" r="11.5" style="fill:rgb(132,132,132);"/>
    </g>
    <g transform="matrix(1,0,0,1,-172,-45)">
        <circle cx="400.5" cy="455.5" r="11.5" style="fill:rgb(132,132,132);"/>
    </g>
    <g transform="matrix(1,0,0,1,-172,-45)">
        <circle cx="629" cy="365" r="26" style="fill:rgb(132,132,132);"/>
    </g>
    <g transform="matrix(1,0,0,1,-172,-45)">
        <circle cx="244" cy="351" r="9" style="fill:rgb(132,132,132);"/>
    </g>
    <g transform="matrix(1,0,0,1,-172,-45)">
        <circle cx="408" cy="323" r="18" style="fill:rgb(132,132,132);"/>
    </g>
    <g transform="matrix(1,0,0,1,-172,-45)">
        <circle cx="334" cy="319" r="24" style="fill:rgb(132,132,132);"/>
    </g>
    <g transform="matrix(1,0,0,1,-172,-45)">
        <circle cx="541" cy="428" r="19" style="fill:rgb(132,132,132);"/>
    </g>
    <g transform="matrix(1,0,0,1,-172,-45)">
        <circle cx="549.5" cy="344.5" r="9.5" style="fill:rgb(132,132,132);"/>
    </g>
    <g transform="matrix(1,0,0,1,-172,-45)">
        <circle cx="384" cy="233" r="6" style="fill:rgb(132,132,132);"/>
    </g>
    <g transform="matrix(1,0,0,1,-172,-45)">
        <circle cx="489.5" cy="76.5" r="4.5" style="fill:rgb(132,132,132);"/>
    </g>
    <g transform="matrix(1,0,0,1,-172,-45)">
        <circle cx="598" cy="186" r="20" style="fill:rgb(132,132,132);"/>
    </g>
    <g transform="matrix(1,0,0,1,-172,-45)">
        <circle cx="462" cy="149" r="12" style="fill:rgb(132,132,132);"/>
    </g>
    <g transform="matrix(1,0,0,1,-172,-45)">
        <circle cx="366" cy="86" r="12" style="fill:rgb(132,132,132);"/>
    </g>
    <g transform="matrix(1,0,0,1,-172,-45)">
        <circle cx="275" cy="162" r="11" style="fill:rgb(132,132,132);"/>
    </g>
    <g transform="matrix(1,0,0,1,-172,-45)">
        <circle cx="486.5" cy="510.5" r="10.5" style="fill:rgb(152,152,152);"/>
    </g>
    <g transform="matrix(1,0,0,1,-172,-45)">
        <circle cx="446" cy="374" r="8" style="fill:rgb(152,152,152);"/>
    </g>
    <g transform="matrix(1,0,0,1,-172,-45)">
        <circle cx="285" cy="401" r="6" style="fill:rgb(152,152,152);"/>
    </g>
    <g transform="matrix(1,0,0,1,-193,-63)">
        <circle cx="346" cy="518" r="16" style="fill:rgb(152,152,152);"/>
    </g>
    <g transform="matrix(1,0,0,1,-172,-45)">
        <circle cx="413" cy="520" r="8" style="fill:rgb(152,152,152);"/>
    </g>
    <g transform="matrix(1,0,0,1,-172,-45)">
        <circle cx="373.5" cy="397.5" r="8.5" style="fill:rgb(152,152,152);"/>
    </g>
    <g transform="matrix(1,0,0,1,-172,-45)">
        <circle cx="606" cy="265" r="14" style="fill:rgb(152,152,152);"/>
    </g>
    <g transform="matrix(1,0,0,1,-172,-45)">
        <circle cx="508" cy="128" r="12" style="fill:rgb(152,152,152);"/>
    </g>
    <g transform="matrix(1,0,0,1,-172,-45)">
        <circle cx="430" cy="88" r="7" style="fill:rgb(152,152,152);"/>
    </g>
</svg>
