<?xml version="1.0" standalone="no"?>
<!DOCTYPE svg PUBLIC "-//W3C//DTD SVG 1.1//EN" "http://www.w3.org/Graphics/SVG/1.1/DTD/svg11.dtd">
<svg width="100%" height="100%" viewBox="0 0 650 650" version="1.1" xmlns="http://www.w3.org/2000/svg" xmlns:xlink="http://www.w3.org/1999/xlink" xml:space="preserve" style="fill-rule:evenodd;clip-rule:evenodd;stroke-linejoin:round;stroke-miterlimit:1.41421;">
    <g transform="matrix(1.07794,0,0,1.07794,-186.484,-153.068)">
        <path d="M474.5,142C503.442,177.811 540.541,193.138 594.249,166.754C612.805,212.762 642.368,235.219 685.635,228.352C681.539,272.014 696.788,307.498 752.211,326C733.713,370.575 739.772,410.124 776,443.5C734.506,476.766 732.98,511.716 757.457,547.761C710.987,562.677 696.099,596.494 701.15,642.244C652.638,642.047 624.765,669.083 609.698,713.016C554.341,696.881 510.627,711.062 474.5,745C440.722,712.256 396.944,699.11 339.35,713.041C332.4,680.888 306.961,659.078 256.236,651.413C262.173,607.501 246.871,577.556 200.025,568.355C218.561,524.748 213.063,482.876 173,443.5C209.393,411.077 228.361,374.132 197.533,324.262C244.009,310.255 265.86,282.818 254.597,237.32C297.811,243.956 328.462,224.443 343.296,172.011C393.177,197.628 437.493,190.994 474.5,142Z" style="fill:rgb(255,117,7);"/>
    </g>
    <g transform="matrix(0.912106,0,0,0.912106,-107.794,-77.5191)">
        <circle cx="474.5" cy="443.5" r="301.5" style="fill:rgb(255,193,7);"/>
    </g>
</svg>
