<?xml version="1.0" standalone="no"?>
<!DOCTYPE svg PUBLIC "-//W3C//DTD SVG 1.1//EN" "http://www.w3.org/Graphics/SVG/1.1/DTD/svg11.dtd">
<svg width="100%" height="100%" viewBox="0 0 554 554" version="1.1" xmlns="http://www.w3.org/2000/svg" xmlns:xlink="http://www.w3.org/1999/xlink" xml:space="preserve" style="fill-rule:evenodd;clip-rule:evenodd;stroke-linejoin:round;stroke-miterlimit:1.41421;">
    <g transform="matrix(1.03358,0,0,1.03358,-172.608,-55.8134)">
        <circle cx="435" cy="322" r="268" style="fill:rgb(174,114,44);"/>
        <clipPath id="_clip1">
            <circle cx="435" cy="322" r="268"/>
        </clipPath>
        <g clip-path="url(#_clip1)">
            <g transform="matrix(0.967509,0,0,0.967509,38.3213,28.8448)">
                <path d="M308,309L316,275L308,258L335,235L308,235L335,165L308,220L292,194L271,194L256,182L228,147L228,182L199,182L204,194L212,203L204,212.04L204,220L256,309L308,309Z" style="fill:rgb(225,179,88);"/>
            </g>
        </g>
    </g>
    <g transform="matrix(1,0,0,1,-133,-26)">
        <path d="M270,284L274,253L292,245L286,224L281,208.888L258.193,208.888L258.193,199L240,199L230,185L225,207L212,220L220,229L204,234L182,229L195,245L182,253L199.931,274.584L204,299L254,319L258.193,284L270,284Z" style="fill:rgb(243,208,126);"/>
    </g>
    <g transform="matrix(1,0,0,1,-133,-26)">
        <path d="M135,272C155.85,293.652 175.249,306.395 193,309C217.121,293.855 234.897,277.772 248,261C242.404,277.989 236.157,294.376 228,309C249.981,301.491 271.984,288.332 294,272L294,309L350,272L400,309L406,265L423.449,300.751L439,287L446.294,296.036L470.281,265L470.281,294.928L502.397,287L502.397,301.602L523,287L538,309L558,261L538,227L587,261L587,293L615,278L615,309L665,309L587,332L604,341L572.397,345.596L558,359L492,369L529,341L500,324L451,341L431,386L419,341L377,386L367,332C357.596,332.268 343,369 343,369L311.178,344.834C311.178,344.834 293.595,358.7 289,369C289,369 273.932,343.699 266,341C261.395,341.377 248.779,342.938 248,347C246.999,352.223 259.21,361.273 266,374L220,341L206,380L193,341C174.062,337.414 155.06,337.525 136,341C133.062,318.093 131.67,295.106 135,272Z" style="fill:rgb(225,179,88);"/>
    </g>
    <g transform="matrix(1,0,0,1,-133,-26)">
        <path d="M669,205L610,159L592,178L558,178L513,221L483,178L448,194L421.611,167.954L391.39,178L391.39,138.125L391.39,104L371,118L358,131L344,82L324,131L314,109L295,109L280,94L261,109L251.129,94L228,94C373.949,-24.663 588.374,13.147 669,205Z" style="fill:rgb(153,91,35);"/>
    </g>
    <g transform="matrix(1,0,0,1,-133,-26)">
        <path d="M617,486L594,465L566.496,460L600,442L613,428L594,428L600,413L600,398.695L582.159,405.383L566.496,398.695L588,358L544.994,389.514L547,369L523.75,380.444L508,392L497,369L516.917,350L547,343L516.917,333L516.917,323.145L497,323.145L497,310L480.938,314.985L460.029,310L460.029,321.474L439,328L439,339L406,343L417,392L398,408L411.443,420.288L370,428L407.891,438.373L384,465L398,465L417,486L390,496.97L390,512L370,496.97L321.207,496.97L314,486L289.659,490.077L289.659,470L253.841,486L203,486C306.058,604.074 499.571,616.037 617,486Z" style="fill:rgb(153,91,35);"/>
    </g>
    <g transform="matrix(1,0,0,1,-133,-26)">
        <path d="M523,150L505,136L510.746,157.352L488,136L471,158L447,176L465,186L459,202L477.709,207.806L488,221L495.104,211L510.746,202L532,211L543,202L557.203,202L572,207.806L572,196.612L583,181L572,172L572,162L557.203,166L547,162L532,176L523,150Z" style="fill:rgb(100,49,19);"/>
    </g>
    <g transform="matrix(1,0,0,1,-133,-26)">
        <path d="M483,170L496,173L496,161L510,177L519,170L530,189L543.156,182.928L548,173L556,181L575,182L561.47,186.985L564,198L547.035,187.524L530,200L512.917,189.966L496,198L488,189.966L478,186.985L488,181L483,170Z" style="fill:rgb(153,91,35);"/>
    </g>
</svg>
